<?xml version="1.0" standalone="no"?>
<!DOCTYPE svg PUBLIC "-//W3C//DTD SVG 20010904//EN"
 "http://www.w3.org/TR/2001/REC-SVG-20010904/DTD/svg10.dtd">
<svg version="1.0" xmlns="http://www.w3.org/2000/svg"
 width="110.000000pt" height="111.000000pt" viewBox="0 0 110.000000 111.000000"
 preserveAspectRatio="xMidYMid meet">

<g transform="translate(0.000000,111.000000) scale(0.100000,-0.100000)"
fill="#000000" stroke="none">
<path d="M0 555 l0 -555 550 0 550 0 0 555 0 555 -550 0 -550 0 0 -555z m787
468 c4 -10 8 -29 7 -43 -1 -14 -2 -51 -3 -84 l-1 -58 -35 31 c-42 36 -58 38
-85 11 -34 -34 -25 -57 50 -128 67 -65 69 -69 71 -119 2 -29 0 -55 -3 -58 -4
-4 -584 -9 -710 -5 -17 0 -18 18 -18 228 0 126 3 232 7 235 3 4 165 7 359 7
327 0 354 -1 361 -17z m204 -66 c46 -35 50 -88 10 -128 -57 -56 -141 -23 -141
56 0 66 81 111 131 72z m-212 -141 c60 -61 66 -64 85 -50 12 8 45 14 81 14 52
0 65 -4 84 -23 20 -23 21 -31 19 -173 l-3 -149 -94 -3 c-52 -1 -98 1 -104 7
-5 5 -10 59 -11 119 l-1 110 -82 77 c-81 75 -95 99 -71 123 20 20 31 14 97
-52z m-549 -324 c44 -55 7 -132 -65 -132 -92 0 -117 119 -33 154 39 17 74 9
98 -22z m257 6 c51 -48 15 -138 -56 -138 -47 0 -81 32 -81 79 0 72 84 109 137
59z m278 -3 c33 -32 33 -78 0 -110 -27 -28 -79 -33 -107 -11 -41 31 -41 103
-1 134 28 21 81 15 108 -13z m3 -166 c17 -6 34 -20 37 -30 11 -33 9 -229 -2
-240 -5 -5 -51 -9 -104 -7 l-94 3 -3 119 c-3 124 2 140 43 156 29 12 87 12
123 -1z m-514 -18 c14 -15 16 -37 14 -137 l-3 -119 -100 0 -100 0 -3 119 c-3
151 0 156 103 156 57 0 75 -4 89 -19z m229 1 c19 -21 68 -226 60 -248 -7 -20
-221 -20 -229 -1 -8 21 45 230 63 250 22 23 85 23 106 -1z"/>
</g>
</svg>
